<mxfile host="app.diagrams.net" agent="Mozilla/5.0 (Macintosh; Intel Mac OS X 10_15_7) AppleWebKit/537.36 (KHTML, like Gecko) Chrome/132.0.0.0 Safari/537.36" version="25.0.3">
  <diagram name="Page-1" id="3cDgkKJ5KNkW8jghRQsH">
    <mxGraphModel dx="1590" dy="1008" grid="1" gridSize="10" guides="1" tooltips="1" connect="1" arrows="1" fold="1" page="1" pageScale="1" pageWidth="827" pageHeight="1169" math="0" shadow="0">
      <root>
        <mxCell id="0" />
        <mxCell id="1" parent="0" />
        <mxCell id="HGSFAaWu71sX7cWjd2W4-1" value="Higher Education Student" style="shape=umlActor;verticalLabelPosition=bottom;verticalAlign=top;html=1;outlineConnect=0;" vertex="1" parent="1">
          <mxGeometry x="100" y="60" width="30" height="60" as="geometry" />
        </mxCell>
        <mxCell id="HGSFAaWu71sX7cWjd2W4-48" value="" style="rounded=0;whiteSpace=wrap;html=1;" vertex="1" parent="1">
          <mxGeometry x="95" y="430" width="415" height="110" as="geometry" />
        </mxCell>
        <mxCell id="HGSFAaWu71sX7cWjd2W4-3" value="" style="endArrow=classic;html=1;rounded=0;exitX=0.061;exitY=0;exitDx=0;exitDy=0;exitPerimeter=0;entryX=0.09;entryY=1.02;entryDx=0;entryDy=0;entryPerimeter=0;" edge="1" parent="1" source="HGSFAaWu71sX7cWjd2W4-2">
          <mxGeometry width="50" height="50" relative="1" as="geometry">
            <mxPoint x="160" y="190" as="sourcePoint" />
            <mxPoint x="299.79999999999995" y="179.69999999999993" as="targetPoint" />
          </mxGeometry>
        </mxCell>
        <mxCell id="HGSFAaWu71sX7cWjd2W4-4" value="&lt;font style=&quot;font-size: 11px;&quot;&gt;login()&lt;/font&gt;" style="text;html=1;align=center;verticalAlign=middle;whiteSpace=wrap;rounded=0;" vertex="1" parent="1">
          <mxGeometry x="190" y="160" width="40" height="20" as="geometry" />
        </mxCell>
        <mxCell id="HGSFAaWu71sX7cWjd2W4-10" value="" style="group" vertex="1" connectable="0" parent="1">
          <mxGeometry x="250" y="60" width="80" height="60" as="geometry" />
        </mxCell>
        <mxCell id="HGSFAaWu71sX7cWjd2W4-6" value="System" style="ellipse;whiteSpace=wrap;html=1;aspect=fixed;" vertex="1" parent="HGSFAaWu71sX7cWjd2W4-10">
          <mxGeometry x="20" width="60" height="60" as="geometry" />
        </mxCell>
        <mxCell id="HGSFAaWu71sX7cWjd2W4-7" value="" style="endArrow=none;html=1;rounded=0;entryX=0;entryY=0.5;entryDx=0;entryDy=0;" edge="1" parent="HGSFAaWu71sX7cWjd2W4-10" target="HGSFAaWu71sX7cWjd2W4-6">
          <mxGeometry width="50" height="50" relative="1" as="geometry">
            <mxPoint y="30" as="sourcePoint" />
            <mxPoint x="-30" y="40" as="targetPoint" />
          </mxGeometry>
        </mxCell>
        <mxCell id="HGSFAaWu71sX7cWjd2W4-8" value="" style="endArrow=none;html=1;rounded=0;" edge="1" parent="HGSFAaWu71sX7cWjd2W4-10">
          <mxGeometry width="50" height="50" relative="1" as="geometry">
            <mxPoint y="50" as="sourcePoint" />
            <mxPoint y="10" as="targetPoint" />
          </mxGeometry>
        </mxCell>
        <mxCell id="HGSFAaWu71sX7cWjd2W4-11" value="" style="endArrow=classic;html=1;rounded=0;exitX=0.211;exitY=1.05;exitDx=0;exitDy=0;exitPerimeter=0;" edge="1" parent="1">
          <mxGeometry width="50" height="50" relative="1" as="geometry">
            <mxPoint x="299.5" y="210" as="sourcePoint" />
            <mxPoint x="120" y="210.37" as="targetPoint" />
          </mxGeometry>
        </mxCell>
        <mxCell id="HGSFAaWu71sX7cWjd2W4-12" value="&lt;font style=&quot;font-size: 11px;&quot;&gt;display homepage&lt;/font&gt;" style="text;html=1;align=center;verticalAlign=middle;whiteSpace=wrap;rounded=0;" vertex="1" parent="1">
          <mxGeometry x="150" y="190" width="120" height="20" as="geometry" />
        </mxCell>
        <mxCell id="HGSFAaWu71sX7cWjd2W4-13" value="" style="endArrow=classic;html=1;rounded=0;exitX=0.09;exitY=-0.005;exitDx=0;exitDy=0;exitPerimeter=0;entryX=0.09;entryY=1.02;entryDx=0;entryDy=0;entryPerimeter=0;" edge="1" parent="1">
          <mxGeometry width="50" height="50" relative="1" as="geometry">
            <mxPoint x="120" y="240" as="sourcePoint" />
            <mxPoint x="300" y="240" as="targetPoint" />
          </mxGeometry>
        </mxCell>
        <mxCell id="HGSFAaWu71sX7cWjd2W4-14" value="&lt;font style=&quot;font-size: 11px;&quot;&gt;navigate to &quot;chatbot support&quot;&lt;/font&gt;" style="text;html=1;align=center;verticalAlign=middle;whiteSpace=wrap;rounded=0;" vertex="1" parent="1">
          <mxGeometry x="125" y="220" width="170" height="20" as="geometry" />
        </mxCell>
        <mxCell id="HGSFAaWu71sX7cWjd2W4-16" value="" style="endArrow=classic;html=1;rounded=0;exitX=0.211;exitY=1.05;exitDx=0;exitDy=0;exitPerimeter=0;" edge="1" parent="1">
          <mxGeometry width="50" height="50" relative="1" as="geometry">
            <mxPoint x="299.5" y="270" as="sourcePoint" />
            <mxPoint x="120" y="270.37" as="targetPoint" />
          </mxGeometry>
        </mxCell>
        <mxCell id="HGSFAaWu71sX7cWjd2W4-17" value="&lt;font style=&quot;font-size: 11px;&quot;&gt;displays the chatbot interface&lt;/font&gt;" style="text;html=1;align=center;verticalAlign=middle;whiteSpace=wrap;rounded=0;" vertex="1" parent="1">
          <mxGeometry x="125" y="250" width="170" height="20" as="geometry" />
        </mxCell>
        <mxCell id="HGSFAaWu71sX7cWjd2W4-18" value="" style="endArrow=classic;html=1;rounded=0;exitX=0.09;exitY=-0.005;exitDx=0;exitDy=0;exitPerimeter=0;entryX=0.047;entryY=0.97;entryDx=0;entryDy=0;entryPerimeter=0;" edge="1" parent="1" target="HGSFAaWu71sX7cWjd2W4-69">
          <mxGeometry width="50" height="50" relative="1" as="geometry">
            <mxPoint x="120" y="300" as="sourcePoint" />
            <mxPoint x="450" y="299" as="targetPoint" />
          </mxGeometry>
        </mxCell>
        <mxCell id="HGSFAaWu71sX7cWjd2W4-19" value="&lt;span style=&quot;font-size: 11px;&quot;&gt;input any mental health query&lt;/span&gt;" style="text;html=1;align=center;verticalAlign=middle;whiteSpace=wrap;rounded=0;" vertex="1" parent="1">
          <mxGeometry x="220" y="280" width="170" height="20" as="geometry" />
        </mxCell>
        <mxCell id="HGSFAaWu71sX7cWjd2W4-20" value="" style="endArrow=classic;html=1;rounded=0;exitX=0.186;exitY=1.055;exitDx=0;exitDy=0;exitPerimeter=0;" edge="1" parent="1" source="HGSFAaWu71sX7cWjd2W4-69">
          <mxGeometry width="50" height="50" relative="1" as="geometry">
            <mxPoint x="450" y="330" as="sourcePoint" />
            <mxPoint x="120" y="330.37" as="targetPoint" />
          </mxGeometry>
        </mxCell>
        <mxCell id="HGSFAaWu71sX7cWjd2W4-21" value="&lt;span style=&quot;font-size: 11px;&quot;&gt;generates and displays response&lt;/span&gt;" style="text;html=1;align=center;verticalAlign=middle;whiteSpace=wrap;rounded=0;" vertex="1" parent="1">
          <mxGeometry x="220" y="305" width="170" height="20" as="geometry" />
        </mxCell>
        <mxCell id="HGSFAaWu71sX7cWjd2W4-22" value="" style="group" vertex="1" connectable="0" parent="1">
          <mxGeometry x="410" y="60" width="80" height="60" as="geometry" />
        </mxCell>
        <mxCell id="HGSFAaWu71sX7cWjd2W4-23" value="Chatbot" style="ellipse;whiteSpace=wrap;html=1;aspect=fixed;" vertex="1" parent="HGSFAaWu71sX7cWjd2W4-22">
          <mxGeometry x="20" width="60" height="60" as="geometry" />
        </mxCell>
        <mxCell id="HGSFAaWu71sX7cWjd2W4-24" value="" style="endArrow=none;html=1;rounded=0;entryX=0;entryY=0.5;entryDx=0;entryDy=0;" edge="1" parent="HGSFAaWu71sX7cWjd2W4-22" target="HGSFAaWu71sX7cWjd2W4-23">
          <mxGeometry width="50" height="50" relative="1" as="geometry">
            <mxPoint y="30" as="sourcePoint" />
            <mxPoint x="-30" y="40" as="targetPoint" />
          </mxGeometry>
        </mxCell>
        <mxCell id="HGSFAaWu71sX7cWjd2W4-25" value="" style="endArrow=none;html=1;rounded=0;" edge="1" parent="HGSFAaWu71sX7cWjd2W4-22">
          <mxGeometry width="50" height="50" relative="1" as="geometry">
            <mxPoint y="50" as="sourcePoint" />
            <mxPoint y="10" as="targetPoint" />
          </mxGeometry>
        </mxCell>
        <mxCell id="HGSFAaWu71sX7cWjd2W4-27" value="" style="endArrow=none;html=1;rounded=0;" edge="1" parent="1">
          <mxGeometry width="50" height="50" relative="1" as="geometry">
            <mxPoint x="300" y="280" as="sourcePoint" />
            <mxPoint x="300" y="150" as="targetPoint" />
          </mxGeometry>
        </mxCell>
        <mxCell id="HGSFAaWu71sX7cWjd2W4-28" value="" style="endArrow=none;html=1;rounded=0;" edge="1" parent="1">
          <mxGeometry width="50" height="50" relative="1" as="geometry">
            <mxPoint x="310" y="280" as="sourcePoint" />
            <mxPoint x="310" y="150" as="targetPoint" />
          </mxGeometry>
        </mxCell>
        <mxCell id="HGSFAaWu71sX7cWjd2W4-29" value="" style="endArrow=none;html=1;rounded=0;" edge="1" parent="1">
          <mxGeometry width="50" height="50" relative="1" as="geometry">
            <mxPoint x="300" y="150" as="sourcePoint" />
            <mxPoint x="310" y="150" as="targetPoint" />
            <Array as="points">
              <mxPoint x="310" y="150" />
            </Array>
          </mxGeometry>
        </mxCell>
        <mxCell id="HGSFAaWu71sX7cWjd2W4-31" value="" style="endArrow=none;html=1;rounded=0;entryX=0.47;entryY=0.25;entryDx=0;entryDy=0;entryPerimeter=0;exitX=0.47;exitY=0.887;exitDx=0;exitDy=0;exitPerimeter=0;" edge="1" parent="1" source="HGSFAaWu71sX7cWjd2W4-19" target="HGSFAaWu71sX7cWjd2W4-21">
          <mxGeometry width="50" height="50" relative="1" as="geometry">
            <mxPoint x="310" y="250" as="sourcePoint" />
            <mxPoint x="360" y="200" as="targetPoint" />
          </mxGeometry>
        </mxCell>
        <mxCell id="HGSFAaWu71sX7cWjd2W4-32" value="" style="endArrow=none;html=1;rounded=0;exitX=0.529;exitY=0.878;exitDx=0;exitDy=0;exitPerimeter=0;" edge="1" parent="1" source="HGSFAaWu71sX7cWjd2W4-19">
          <mxGeometry width="50" height="50" relative="1" as="geometry">
            <mxPoint x="310" y="300" as="sourcePoint" />
            <mxPoint x="310" y="310" as="targetPoint" />
          </mxGeometry>
        </mxCell>
        <mxCell id="HGSFAaWu71sX7cWjd2W4-33" value="" style="endArrow=classic;html=1;rounded=0;exitX=0.09;exitY=-0.005;exitDx=0;exitDy=0;exitPerimeter=0;entryX=0.326;entryY=1;entryDx=0;entryDy=0;entryPerimeter=0;" edge="1" parent="1" target="HGSFAaWu71sX7cWjd2W4-69">
          <mxGeometry width="50" height="50" relative="1" as="geometry">
            <mxPoint x="120" y="360" as="sourcePoint" />
            <mxPoint x="450" y="360" as="targetPoint" />
          </mxGeometry>
        </mxCell>
        <mxCell id="HGSFAaWu71sX7cWjd2W4-34" value="&lt;span style=&quot;font-size: 11px;&quot;&gt;review response/feedback&lt;/span&gt;" style="text;html=1;align=center;verticalAlign=middle;whiteSpace=wrap;rounded=0;" vertex="1" parent="1">
          <mxGeometry x="220" y="340" width="170" height="20" as="geometry" />
        </mxCell>
        <mxCell id="HGSFAaWu71sX7cWjd2W4-35" value="" style="endArrow=none;html=1;rounded=0;exitX=0.471;exitY=0.968;exitDx=0;exitDy=0;exitPerimeter=0;entryX=0.471;entryY=0;entryDx=0;entryDy=0;entryPerimeter=0;" edge="1" parent="1" source="HGSFAaWu71sX7cWjd2W4-21" target="HGSFAaWu71sX7cWjd2W4-34">
          <mxGeometry width="50" height="50" relative="1" as="geometry">
            <mxPoint x="295" y="325" as="sourcePoint" />
            <mxPoint x="300" y="340" as="targetPoint" />
            <Array as="points">
              <mxPoint x="300" y="330" />
            </Array>
          </mxGeometry>
        </mxCell>
        <mxCell id="HGSFAaWu71sX7cWjd2W4-37" value="" style="endArrow=none;html=1;rounded=0;exitX=0.471;exitY=0.968;exitDx=0;exitDy=0;exitPerimeter=0;entryX=0.471;entryY=0;entryDx=0;entryDy=0;entryPerimeter=0;" edge="1" parent="1">
          <mxGeometry width="50" height="50" relative="1" as="geometry">
            <mxPoint x="310" y="324" as="sourcePoint" />
            <mxPoint x="310" y="340" as="targetPoint" />
            <Array as="points">
              <mxPoint x="310" y="330" />
            </Array>
          </mxGeometry>
        </mxCell>
        <mxCell id="HGSFAaWu71sX7cWjd2W4-38" value="" style="endArrow=classic;html=1;rounded=0;exitX=0.465;exitY=1;exitDx=0;exitDy=0;exitPerimeter=0;" edge="1" parent="1" source="HGSFAaWu71sX7cWjd2W4-69">
          <mxGeometry width="50" height="50" relative="1" as="geometry">
            <mxPoint x="450" y="390" as="sourcePoint" />
            <mxPoint x="120" y="390.37" as="targetPoint" />
          </mxGeometry>
        </mxCell>
        <mxCell id="HGSFAaWu71sX7cWjd2W4-39" value="&lt;span style=&quot;font-size: 11px;&quot;&gt;provide follow-up recommendations&lt;/span&gt;" style="text;html=1;align=center;verticalAlign=middle;whiteSpace=wrap;rounded=0;" vertex="1" parent="1">
          <mxGeometry x="195" y="370" width="220" height="20" as="geometry" />
        </mxCell>
        <mxCell id="HGSFAaWu71sX7cWjd2W4-41" value="" style="endArrow=none;html=1;rounded=0;exitX=0.471;exitY=0.901;exitDx=0;exitDy=0;exitPerimeter=0;entryX=0.477;entryY=0;entryDx=0;entryDy=0;entryPerimeter=0;" edge="1" parent="1" source="HGSFAaWu71sX7cWjd2W4-34" target="HGSFAaWu71sX7cWjd2W4-39">
          <mxGeometry width="50" height="50" relative="1" as="geometry">
            <mxPoint x="295" y="360" as="sourcePoint" />
            <mxPoint x="295" y="376" as="targetPoint" />
            <Array as="points">
              <mxPoint x="300" y="366" />
            </Array>
          </mxGeometry>
        </mxCell>
        <mxCell id="HGSFAaWu71sX7cWjd2W4-42" value="" style="endArrow=none;html=1;rounded=0;exitX=0.471;exitY=0.901;exitDx=0;exitDy=0;exitPerimeter=0;entryX=0.477;entryY=0;entryDx=0;entryDy=0;entryPerimeter=0;" edge="1" parent="1">
          <mxGeometry width="50" height="50" relative="1" as="geometry">
            <mxPoint x="310" y="358" as="sourcePoint" />
            <mxPoint x="310" y="370" as="targetPoint" />
            <Array as="points">
              <mxPoint x="310" y="366" />
            </Array>
          </mxGeometry>
        </mxCell>
        <mxCell id="HGSFAaWu71sX7cWjd2W4-43" value="" style="endArrow=classic;html=1;rounded=0;exitX=0.605;exitY=0.988;exitDx=0;exitDy=0;exitPerimeter=0;" edge="1" parent="1" source="HGSFAaWu71sX7cWjd2W4-69">
          <mxGeometry width="50" height="50" relative="1" as="geometry">
            <mxPoint x="460" y="420" as="sourcePoint" />
            <mxPoint x="310" y="420" as="targetPoint" />
          </mxGeometry>
        </mxCell>
        <mxCell id="HGSFAaWu71sX7cWjd2W4-45" value="" style="endArrow=none;html=1;rounded=0;entryX=0.477;entryY=1.055;entryDx=0;entryDy=0;entryPerimeter=0;exitX=0.547;exitY=0.125;exitDx=0;exitDy=0;exitPerimeter=0;" edge="1" parent="1" source="HGSFAaWu71sX7cWjd2W4-56" target="HGSFAaWu71sX7cWjd2W4-39">
          <mxGeometry width="50" height="50" relative="1" as="geometry">
            <mxPoint x="300" y="660" as="sourcePoint" />
            <mxPoint x="340" y="370" as="targetPoint" />
            <Array as="points">
              <mxPoint x="300" y="390" />
            </Array>
          </mxGeometry>
        </mxCell>
        <mxCell id="HGSFAaWu71sX7cWjd2W4-46" value="" style="endArrow=none;html=1;rounded=0;entryX=0.477;entryY=1.055;entryDx=0;entryDy=0;entryPerimeter=0;exitX=0.578;exitY=0.125;exitDx=0;exitDy=0;exitPerimeter=0;" edge="1" parent="1" source="HGSFAaWu71sX7cWjd2W4-56">
          <mxGeometry width="50" height="50" relative="1" as="geometry">
            <mxPoint x="310" y="660" as="sourcePoint" />
            <mxPoint x="310" y="390" as="targetPoint" />
          </mxGeometry>
        </mxCell>
        <mxCell id="HGSFAaWu71sX7cWjd2W4-47" value="&lt;span style=&quot;font-size: 11px;&quot;&gt;stores data&lt;/span&gt;" style="text;html=1;align=center;verticalAlign=middle;whiteSpace=wrap;rounded=0;" vertex="1" parent="1">
          <mxGeometry x="330" y="400" width="110" height="20" as="geometry" />
        </mxCell>
        <mxCell id="HGSFAaWu71sX7cWjd2W4-49" value="" style="shape=card;whiteSpace=wrap;html=1;rotation=-180;size=20;" vertex="1" parent="1">
          <mxGeometry x="95" y="430" width="85" height="30" as="geometry" />
        </mxCell>
        <mxCell id="HGSFAaWu71sX7cWjd2W4-53" value="alt" style="text;html=1;align=center;verticalAlign=middle;whiteSpace=wrap;rounded=0;" vertex="1" parent="1">
          <mxGeometry x="100" y="430" width="60" height="30" as="geometry" />
        </mxCell>
        <mxCell id="HGSFAaWu71sX7cWjd2W4-54" value="" style="endArrow=classic;html=1;rounded=0;exitX=0.93;exitY=0.96;exitDx=0;exitDy=0;exitPerimeter=0;" edge="1" parent="1" source="HGSFAaWu71sX7cWjd2W4-69">
          <mxGeometry width="50" height="50" relative="1" as="geometry">
            <mxPoint x="460" y="490" as="sourcePoint" />
            <mxPoint x="120" y="490.37" as="targetPoint" />
          </mxGeometry>
        </mxCell>
        <mxCell id="HGSFAaWu71sX7cWjd2W4-55" value="&lt;span style=&quot;font-size: 11px;&quot;&gt;[cannot handle query]&lt;/span&gt;" style="text;html=1;align=center;verticalAlign=middle;whiteSpace=wrap;rounded=0;" vertex="1" parent="1">
          <mxGeometry x="330" y="430" width="110" height="20" as="geometry" />
        </mxCell>
        <mxCell id="HGSFAaWu71sX7cWjd2W4-56" value="&lt;span style=&quot;font-size: 11px;&quot;&gt;inform about issue and suggests contacting mental health professional&lt;/span&gt;" style="text;html=1;align=center;verticalAlign=middle;whiteSpace=wrap;rounded=0;" vertex="1" parent="1">
          <mxGeometry x="125" y="455" width="320" height="40" as="geometry" />
        </mxCell>
        <mxCell id="HGSFAaWu71sX7cWjd2W4-61" value="&lt;span style=&quot;font-size: 11px;&quot;&gt;provides contact details/referral links&lt;/span&gt;" style="text;html=1;align=center;verticalAlign=middle;whiteSpace=wrap;rounded=0;" vertex="1" parent="1">
          <mxGeometry x="100" y="495" width="220" height="20" as="geometry" />
        </mxCell>
        <mxCell id="HGSFAaWu71sX7cWjd2W4-60" value="" style="endArrow=classic;html=1;rounded=0;exitX=0.211;exitY=1.05;exitDx=0;exitDy=0;exitPerimeter=0;" edge="1" parent="1">
          <mxGeometry width="50" height="50" relative="1" as="geometry">
            <mxPoint x="299.5" y="520" as="sourcePoint" />
            <mxPoint x="120" y="520.37" as="targetPoint" />
          </mxGeometry>
        </mxCell>
        <mxCell id="HGSFAaWu71sX7cWjd2W4-62" value="" style="rounded=0;whiteSpace=wrap;html=1;" vertex="1" parent="1">
          <mxGeometry x="95" y="560" width="415" height="70" as="geometry" />
        </mxCell>
        <mxCell id="HGSFAaWu71sX7cWjd2W4-63" value="" style="shape=card;whiteSpace=wrap;html=1;rotation=-180;size=20;" vertex="1" parent="1">
          <mxGeometry x="95" y="560" width="85" height="30" as="geometry" />
        </mxCell>
        <mxCell id="HGSFAaWu71sX7cWjd2W4-64" value="alt" style="text;html=1;align=center;verticalAlign=middle;whiteSpace=wrap;rounded=0;" vertex="1" parent="1">
          <mxGeometry x="100" y="560" width="60" height="30" as="geometry" />
        </mxCell>
        <mxCell id="HGSFAaWu71sX7cWjd2W4-65" value="" style="endArrow=classic;html=1;rounded=0;exitX=0.211;exitY=1.05;exitDx=0;exitDy=0;exitPerimeter=0;" edge="1" parent="1">
          <mxGeometry width="50" height="50" relative="1" as="geometry">
            <mxPoint x="299.5" y="609.64" as="sourcePoint" />
            <mxPoint x="120" y="610.01" as="targetPoint" />
          </mxGeometry>
        </mxCell>
        <mxCell id="HGSFAaWu71sX7cWjd2W4-66" value="&lt;span style=&quot;font-size: 11px;&quot;&gt;[system error/failure]&lt;/span&gt;" style="text;html=1;align=center;verticalAlign=middle;whiteSpace=wrap;rounded=0;" vertex="1" parent="1">
          <mxGeometry x="335" y="560" width="110" height="20" as="geometry" />
        </mxCell>
        <mxCell id="HGSFAaWu71sX7cWjd2W4-67" value="&lt;span style=&quot;font-size: 11px;&quot;&gt;log error and retry&lt;/span&gt;" style="text;html=1;align=center;verticalAlign=middle;whiteSpace=wrap;rounded=0;" vertex="1" parent="1">
          <mxGeometry x="100" y="590" width="220" height="20" as="geometry" />
        </mxCell>
        <mxCell id="HGSFAaWu71sX7cWjd2W4-2" value="" style="rounded=0;whiteSpace=wrap;html=1;direction=south;" vertex="1" parent="1">
          <mxGeometry x="110" y="150" width="10" height="490" as="geometry" />
        </mxCell>
        <mxCell id="HGSFAaWu71sX7cWjd2W4-58" value="" style="endArrow=none;html=1;rounded=0;entryX=0.547;entryY=0.875;entryDx=0;entryDy=0;entryPerimeter=0;" edge="1" parent="1" target="HGSFAaWu71sX7cWjd2W4-56">
          <mxGeometry width="50" height="50" relative="1" as="geometry">
            <mxPoint x="300" y="640" as="sourcePoint" />
            <mxPoint x="295" y="516" as="targetPoint" />
            <Array as="points" />
          </mxGeometry>
        </mxCell>
        <mxCell id="HGSFAaWu71sX7cWjd2W4-57" value="" style="endArrow=none;html=1;rounded=0;entryX=0.477;entryY=1.055;entryDx=0;entryDy=0;entryPerimeter=0;" edge="1" parent="1">
          <mxGeometry width="50" height="50" relative="1" as="geometry">
            <mxPoint x="310" y="640" as="sourcePoint" />
            <mxPoint x="310" y="491" as="targetPoint" />
            <Array as="points">
              <mxPoint x="310" y="490" />
            </Array>
          </mxGeometry>
        </mxCell>
        <mxCell id="HGSFAaWu71sX7cWjd2W4-68" value="" style="endArrow=none;html=1;rounded=0;" edge="1" parent="1">
          <mxGeometry width="50" height="50" relative="1" as="geometry">
            <mxPoint x="300" y="640" as="sourcePoint" />
            <mxPoint x="310" y="640" as="targetPoint" />
          </mxGeometry>
        </mxCell>
        <mxCell id="HGSFAaWu71sX7cWjd2W4-69" value="" style="rounded=0;whiteSpace=wrap;html=1;rotation=90;" vertex="1" parent="1">
          <mxGeometry x="367.5" y="392.5" width="215" height="10" as="geometry" />
        </mxCell>
        <mxCell id="HGSFAaWu71sX7cWjd2W4-71" value="" style="endArrow=none;dashed=1;html=1;dashPattern=1 3;strokeWidth=2;rounded=0;entryX=0;entryY=0.5;entryDx=0;entryDy=0;" edge="1" parent="1" target="HGSFAaWu71sX7cWjd2W4-69">
          <mxGeometry width="50" height="50" relative="1" as="geometry">
            <mxPoint x="475" y="140" as="sourcePoint" />
            <mxPoint x="440" y="400" as="targetPoint" />
          </mxGeometry>
        </mxCell>
        <mxCell id="HGSFAaWu71sX7cWjd2W4-72" value="" style="endArrow=none;dashed=1;html=1;dashPattern=1 3;strokeWidth=2;rounded=0;exitX=1;exitY=0.5;exitDx=0;exitDy=0;" edge="1" parent="1" source="HGSFAaWu71sX7cWjd2W4-69">
          <mxGeometry width="50" height="50" relative="1" as="geometry">
            <mxPoint x="360" y="420" as="sourcePoint" />
            <mxPoint x="475" y="670" as="targetPoint" />
          </mxGeometry>
        </mxCell>
      </root>
    </mxGraphModel>
  </diagram>
</mxfile>
